<?xml version="1.0" encoding="UTF-8" standalone="no"?>
<!DOCTYPE svg PUBLIC "-//W3C//DTD SVG 1.1//EN" "http://www.w3.org/Graphics/SVG/1.1/DTD/svg11.dtd">
<svg xmlns="http://www.w3.org/2000/svg" version="1.1" viewBox="0.00 0.00 580.00 430.00">
<path fill="#000000" d="
  M 376.83 125.02
  A 84.72 84.72 0.0 0 1 292.11 209.74
  A 84.72 84.72 0.0 0 1 207.39 125.02
  A 84.72 84.72 0.0 0 1 292.11 40.30
  A 84.72 84.72 0.0 0 1 376.83 125.02
  Z
  M 373.52 125.01
  A 81.38 81.38 0.0 0 0 292.14 43.63
  A 81.38 81.38 0.0 0 0 210.76 125.01
  A 81.38 81.38 0.0 0 0 292.14 206.39
  A 81.38 81.38 0.0 0 0 373.52 125.01
  Z"
/>
<path fill="#000000" d="
  M 369.70 125.00
  A 77.57 77.57 0.0 0 1 292.13 202.57
  A 77.57 77.57 0.0 0 1 214.56 125.00
  A 77.57 77.57 0.0 0 1 292.13 47.43
  A 77.57 77.57 0.0 0 1 369.70 125.00
  Z
  M 299.00 83.85
  A 0.45 0.45 0.0 0 0 298.55 83.40
  L 290.45 83.40
  A 0.45 0.45 0.0 0 0 290.00 83.85
  L 290.00 166.27
  A 0.45 0.45 0.0 0 0 290.45 166.72
  L 298.55 166.72
  A 0.45 0.45 0.0 0 0 299.00 166.27
  L 299.00 83.85
  Z
  M 278.56 98.07
  A 0.55 0.55 0.0 0 0 278.01 97.52
  L 270.03 97.52
  A 0.55 0.55 0.0 0 0 269.48 98.07
  L 269.48 152.41
  A 0.55 0.55 0.0 0 0 270.03 152.96
  L 278.01 152.96
  A 0.55 0.55 0.0 0 0 278.56 152.41
  L 278.56 98.07
  Z
  M 319.60 98.07
  A 0.55 0.55 0.0 0 0 319.05 97.52
  L 311.17 97.52
  A 0.55 0.55 0.0 0 0 310.62 98.07
  L 310.62 152.41
  A 0.55 0.55 0.0 0 0 311.17 152.96
  L 319.05 152.96
  A 0.55 0.55 0.0 0 0 319.60 152.41
  L 319.60 98.07
  Z
  M 258.1300 113.4180
  A 0.41 0.41 0.0 0 0 257.7207 113.0073
  L 249.4207 112.9928
  A 0.41 0.41 0.0 0 0 249.0100 113.4021
  L 248.9700 136.3420
  A 0.41 0.41 0.0 0 0 249.3793 136.7527
  L 257.6793 136.7672
  A 0.41 0.41 0.0 0 0 258.0900 136.3579
  L 258.1300 113.4180
  Z
  M 340.15 113.53
  A 0.52 0.52 0.0 0 0 339.63 113.01
  L 331.63 113.01
  A 0.52 0.52 0.0 0 0 331.11 113.53
  L 331.11 136.25
  A 0.52 0.52 0.0 0 0 331.63 136.77
  L 339.63 136.77
  A 0.52 0.52 0.0 0 0 340.15 136.25
  L 340.15 113.53
  Z"
/>
<path fill="#333333" d="
  M 263.32 250.64
  Q 270.03 246.99 279.00 247.79
  C 289.78 248.76 295.57 255.32 295.98 266.20
  Q 296.54 280.71 296.18 296.48
  Q 296.17 297.16 295.48 297.16
  L 284.68 297.16
  A 0.67 0.67 0.0 0 1 284.01 296.49
  Q 284.13 281.03 283.94 269.92
  Q 283.77 259.27 273.75 258.84
  Q 267.85 258.59 263.14 262.08
  A 1.48 1.47 72.0 0 0 262.54 263.27
  L 262.54 296.78
  Q 262.54 297.16 262.16 297.16
  L 250.59 297.17
  A 0.59 0.58 0.0 0 1 250.00 296.59
  L 250.07 230.31
  Q 250.07 229.69 250.69 229.69
  L 262.01 229.68
  Q 262.58 229.68 262.58 230.26
  L 262.59 250.20
  Q 262.59 251.03 263.32 250.64
  Z"
/>
<path fill="#333333" d="
  M 480.75 259.43
  Q 480.51 270.18 480.87 280.38
  C 481.14 287.64 487.74 287.93 493.24 286.77
  A 0.79 0.79 0.0 0 1 494.19 287.54
  L 494.19 295.25
  Q 494.19 296.08 493.39 296.33
  C 484.85 299.00 473.66 298.98 469.51 289.75
  Q 468.02 286.43 468.14 278.64
  Q 468.28 269.80 468.17 259.20
  Q 468.17 258.75 467.72 258.75
  L 461.75 258.77
  Q 461.22 258.77 461.22 258.25
  L 461.22 249.26
  Q 461.22 248.48 461.99 248.48
  L 467.50 248.46
  A 0.71 0.70 -90.0 0 0 468.20 247.75
  L 468.21 230.25
  Q 468.21 229.71 468.75 229.71
  L 480.08 229.71
  Q 480.71 229.71 480.71 230.33
  L 480.70 247.95
  A 0.50 0.50 0.0 0 0 481.20 248.45
  L 493.99 248.47
  A 0.40 0.39 -90.0 0 1 494.38 248.87
  L 494.37 258.44
  A 0.31 0.31 0.0 0 1 494.06 258.75
  L 481.44 258.76
  Q 480.76 258.76 480.75 259.43
  Z"
/>
<path fill="#333333" d="
  M 122.86 245.54
  L 122.81 296.74
  A 0.40 0.40 0.0 0 1 122.41 297.14
  L 110.56 297.19
  A 0.40 0.40 0.0 0 1 110.16 296.79
  L 110.11 245.51
  A 0.40 0.40 0.0 0 0 109.71 245.11
  L 90.44 245.15
  A 0.40 0.40 0.0 0 1 90.04 244.75
  L 90.06 234.48
  A 0.40 0.40 0.0 0 1 90.46 234.08
  L 142.55 234.07
  A 0.40 0.40 0.0 0 1 142.95 234.47
  L 142.96 244.76
  A 0.40 0.40 0.0 0 1 142.56 245.16
  L 123.26 245.14
  A 0.40 0.40 0.0 0 0 122.86 245.54
  Z"
/>
<path fill="#333333" d="
  M 153.58 276.95
  Q 156.19 286.11 165.45 286.99
  Q 174.19 287.83 179.36 281.79
  Q 179.73 281.35 180.19 281.71
  L 187.34 287.42
  A 0.64 0.64 0.0 0 1 187.45 288.30
  Q 184.80 291.81 181.27 293.79
  C 166.33 302.18 146.02 297.25 141.70 278.94
  C 137.85 262.62 149.71 247.03 166.72 247.72
  C 182.98 248.37 189.92 261.08 189.38 275.88
  A 0.45 0.45 0.0 0 1 188.93 276.32
  L 154.05 276.33
  A 0.49 0.49 0.0 0 0 153.58 276.95
  Z
  M 154.12 268.55
  L 177.57 268.23
  A 0.13 0.13 0.0 0 0 177.70 268.09
  L 177.70 268.02
  A 11.76 10.60 -0.8 0 0 165.79 257.59
  L 165.59 257.59
  A 11.76 10.60 -0.8 0 0 153.98 268.36
  L 153.98 268.43
  A 0.13 0.13 0.0 0 0 154.12 268.55
  Z"
/>
<path fill="#333333" d="
  M 216.71 260.17
  C 207.79 264.20 205.21 275.40 212.53 282.54
  C 218.50 288.35 228.13 288.19 233.23 281.17
  A 0.41 0.41 0.0 0 1 233.84 281.11
  L 240.64 287.42
  Q 241.30 288.03 240.75 288.74
  C 234.13 297.31 222.95 299.84 213.09 296.04
  Q 196.54 289.67 196.30 272.48
  Q 196.16 262.18 204.23 254.85
  C 215.09 244.97 231.35 244.96 241.07 256.88
  Q 241.43 257.32 241.02 257.71
  L 234.07 264.36
  Q 233.57 264.84 233.16 264.29
  C 229.11 258.91 222.62 257.49 216.71 260.17
  Z"
/>
<path fill="#333333" d="
  M 319.52 251.03
  A 0.37 0.37 0.0 0 0 320.11 251.33
  C 326.72 246.57 339.34 246.12 346.20 251.34
  C 351.44 255.32 353.02 261.71 353.12 268.12
  Q 353.33 282.69 353.14 296.48
  A 0.65 0.65 0.0 0 1 352.49 297.12
  L 341.47 297.17
  A 0.57 0.56 -0.0 0 1 340.90 296.61
  Q 340.72 283.97 340.93 271.04
  C 341.02 265.19 339.29 260.36 332.94 259.05
  Q 326.53 257.72 320.05 262.18
  A 1.27 1.27 0.0 0 0 319.51 263.22
  L 319.47 296.46
  A 0.68 0.68 0.0 0 1 318.79 297.14
  L 307.61 297.18
  A 0.57 0.56 -90.0 0 1 307.05 296.61
  L 307.04 248.71
  A 0.25 0.25 0.0 0 1 307.29 248.46
  L 318.99 248.46
  A 0.53 0.53 0.0 0 1 319.52 249.00
  L 319.52 251.03
  Z"
/>
<path fill="#333333" d="
  M 375.51 280.19
  Q 375.74 280.48 377.08 282.22
  Q 380.29 286.36 385.49 287.03
  Q 394.04 288.12 400.31 281.86
  Q 400.66 281.50 401.06 281.82
  L 407.99 287.35
  Q 408.60 287.83 408.11 288.43
  C 398.77 299.90 379.21 301.33 368.54 290.27
  Q 361.71 283.19 361.90 272.28
  C 362.21 254.98 377.19 244.57 393.88 248.67
  C 405.68 251.58 410.63 263.94 410.28 275.70
  Q 410.26 276.26 409.70 276.27
  Q 392.92 276.46 377.20 276.24
  Q 372.39 276.17 375.51 280.19
  Z
  M 374.92 268.50
  L 398.32 268.26
  A 0.14 0.14 0.0 0 0 398.45 268.12
  L 398.45 268.03
  A 11.71 10.55 -0.6 0 0 386.63 257.60
  L 386.37 257.60
  A 11.71 10.55 -0.6 0 0 374.77 268.27
  L 374.78 268.36
  A 0.14 0.14 0.0 0 0 374.92 268.50
  Z"
/>
<path fill="#333333" d="
  M 428.77 260.99
  C 427.72 263.72 431.36 265.73 433.49 266.14
  C 442.94 267.97 458.47 270.79 457.08 283.97
  C 456.11 293.23 448.39 297.21 439.90 297.73
  Q 428.00 298.46 417.23 293.61
  Q 416.59 293.32 416.90 292.69
  L 420.92 284.64
  A 0.62 0.62 0.0 0 1 421.72 284.34
  C 427.52 286.86 438.77 290.09 444.31 286.12
  C 447.14 284.09 445.68 281.10 443.16 279.86
  Q 441.45 279.01 439.67 278.61
  Q 432.56 277.01 426.14 274.76
  C 420.76 272.87 417.05 267.51 417.59 261.69
  C 418.35 253.55 424.30 248.73 432.29 247.90
  Q 443.27 246.76 454.56 251.48
  A 0.45 0.45 0.0 0 1 454.80 252.09
  L 450.99 260.23
  A 0.67 0.66 22.9 0 1 450.14 260.57
  Q 443.26 257.85 435.94 257.54
  C 432.91 257.41 429.94 257.95 428.77 260.99
  Z"
/>
<path fill="#333333" d="
  M 251.80 333.05
  L 244.97 333.05
  Q 244.31 333.05 244.11 333.68
  L 242.39 339.13
  A 1.39 1.35 85.3 0 1 241.74 339.92
  Q 240.99 340.32 240.32 340.11
  A 0.92 0.92 0.0 0 1 239.73 338.94
  Q 243.12 328.98 246.58 318.78
  C 247.03 317.43 248.62 317.29 249.72 317.90
  Q 250.18 318.16 250.35 318.66
  L 257.24 339.22
  Q 257.56 340.16 256.57 340.14
  L 255.52 340.12
  A 1.22 1.22 0.0 0 1 254.38 339.26
  L 252.66 333.68
  Q 252.46 333.04 251.80 333.05
  Z
  M 245.23 330.55
  A 0.50 0.50 0.0 0 0 245.72 331.19
  L 251.20 331.07
  A 0.50 0.50 0.0 0 0 251.67 330.42
  L 248.73 321.25
  A 0.50 0.50 0.0 0 0 247.77 321.27
  L 245.23 330.55
  Z"
/>
<path fill="#333333" d="
  M 280.36 322.83
  Q 279.98 321.09 279.56 322.82
  L 275.50 339.49
  A 0.76 0.74 7.1 0 1 274.75 340.06
  L 272.84 340.01
  Q 272.17 339.99 272.03 339.33
  L 267.51 318.47
  A 0.60 0.60 0.0 0 1 268.03 317.75
  L 269.24 317.62
  A 1.03 1.02 81.4 0 1 270.35 318.45
  L 273.69 335.51
  Q 274.12 337.73 274.54 335.50
  Q 276.21 326.60 278.51 318.66
  A 1.50 1.49 -82.1 0 1 279.93 317.58
  Q 281.11 317.57 281.43 318.68
  Q 283.95 327.22 285.71 335.86
  A 0.31 0.30 72.9 0 0 286.12 336.08
  Q 286.28 336.01 286.31 335.84
  Q 287.89 327.36 289.47 318.98
  Q 289.70 317.74 290.96 317.60
  Q 291.27 317.56 291.57 317.64
  Q 292.42 317.86 292.24 318.72
  L 287.97 339.25
  Q 287.86 339.77 287.36 339.92
  Q 286.26 340.27 285.15 340.00
  Q 284.54 339.85 284.35 339.16
  Q 282.11 330.90 280.36 322.83
  Z"
/>
<path fill="#333333" d="
  M 298.07 333.71
  Q 297.35 336.22 296.57 338.75
  A 2.04 2.04 0.0 0 1 294.94 340.17
  Q 294.74 340.21 294.53 340.14
  Q 293.49 339.82 293.84 338.78
  L 300.57 318.80
  A 1.51 1.48 83.6 0 1 301.18 318.02
  Q 302.38 317.27 303.67 317.80
  Q 304.11 317.98 304.26 318.43
  L 311.32 339.17
  Q 311.67 340.19 310.59 340.14
  L 309.62 340.09
  Q 308.65 340.04 308.36 339.11
  L 306.68 333.68
  A 0.88 0.88 0.0 0 0 305.82 333.05
  L 298.81 333.14
  Q 298.23 333.15 298.07 333.71
  Z
  M 299.18 330.54
  A 0.50 0.50 0.0 0 0 299.67 331.18
  L 305.21 331.05
  A 0.50 0.50 0.0 0 0 305.68 330.42
  L 303.12 320.92
  A 0.50 0.50 0.0 0 0 302.16 320.90
  L 299.18 330.54
  Z"
/>
<path fill="#333333" d="
  M 326.11 317.67
  L 328.17 317.65
  A 0.38 0.38 0.0 0 1 328.53 318.15
  L 321.76 339.78
  A 0.38 0.38 0.0 0 1 321.42 340.04
  L 318.68 340.18
  A 0.38 0.38 0.0 0 1 318.30 339.91
  L 311.59 318.26
  A 0.38 0.38 0.0 0 1 311.96 317.77
  L 313.91 317.77
  A 0.38 0.38 0.0 0 1 314.27 318.04
  L 319.79 336.38
  A 0.38 0.38 0.0 0 0 320.52 336.37
  L 325.75 317.94
  A 0.38 0.38 0.0 0 1 326.11 317.67
  Z"
/>
<rect fill="#333333" x="-1.40" y="-11.19" transform="translate(262.14,328.91) rotate(0.1)" width="2.80" height="22.38" rx="0.66"/>
<path fill="#333333" d="
  M 334.97 327.07
  L 342.74 327.09
  A 0.45 0.45 0.0 0 1 343.19 327.55
  L 343.16 329.00
  A 0.45 0.45 0.0 0 1 342.72 329.44
  L 334.97 329.53
  A 0.45 0.45 0.0 0 0 334.52 329.99
  L 334.55 337.12
  A 0.45 0.45 0.0 0 0 335.00 337.57
  L 344.37 337.59
  A 0.45 0.45 0.0 0 1 344.82 338.01
  L 344.93 339.50
  A 0.45 0.45 0.0 0 1 344.49 339.98
  L 332.41 340.04
  A 0.45 0.45 0.0 0 1 331.96 339.59
  L 331.99 318.19
  A 0.45 0.45 0.0 0 1 332.44 317.74
  L 344.02 317.80
  A 0.45 0.45 0.0 0 1 344.45 318.12
  L 344.82 319.39
  A 0.45 0.45 0.0 0 1 344.39 319.96
  L 334.97 320.14
  A 0.45 0.45 0.0 0 0 334.53 320.59
  L 334.52 326.62
  A 0.45 0.45 0.0 0 0 334.97 327.07
  Z"
/>
<rect fill="#333333" x="104.07" y="327.50" width="126.68" height="2.74" rx="0.41"/>
<rect fill="#333333" x="353.28" y="327.55" width="126.90" height="2.66" rx="0.79"/>
</svg>
