<?xml version="1.0" encoding="UTF-8" standalone="no"?>
<!DOCTYPE svg PUBLIC "-//W3C//DTD SVG 1.1//EN" "http://www.w3.org/Graphics/SVG/1.1/DTD/svg11.dtd">
<svg xmlns="http://www.w3.org/2000/svg" version="1.1" viewBox="0.00 0.00 940.00 265.00">
<path fill="#333333" d="
  M 400.88 55.01
  C 404.78 53.64 408.18 51.49 412.28 50.52
  Q 415.39 49.79 418.36 49.16
  C 428.12 47.11 437.09 47.88 446.67 50.01
  C 458.84 52.72 468.13 60.54 472.42 72.00
  C 475.49 80.20 476.32 88.93 476.49 98.02
  Q 477.04 127.94 476.63 158.34
  A 1.16 1.16 0.0 0 1 475.47 159.48
  L 449.70 159.47
  A 1.19 1.19 0.0 0 1 448.51 158.28
  Q 448.47 132.50 448.53 104.34
  C 448.54 97.95 448.04 92.04 446.17 86.04
  C 444.77 81.56 441.02 77.41 436.47 75.51
  C 425.03 70.74 411.21 73.51 401.33 80.60
  A 2.52 2.49 72.6 0 0 400.29 82.62
  L 400.27 158.85
  A 0.62 0.62 0.0 0 1 399.65 159.47
  L 373.07 159.47
  A 1.15 1.14 0.0 0 1 371.92 158.33
  L 372.06 8.18
  A 0.77 0.76 -90.0 0 1 372.82 7.41
  L 399.26 7.40
  Q 400.36 7.40 400.36 8.51
  L 400.39 54.66
  A 0.37 0.36 80.1 0 0 400.88 55.01
  Z"
/>
<path fill="#333333" d="
  M 863.61 50.04
  Q 864.52 50.04 864.52 49.14
  L 864.53 8.24
  A 0.74 0.73 -90.0 0 1 865.26 7.50
  L 892.03 7.49
  A 0.79 0.78 90.0 0 1 892.81 8.28
  L 892.79 49.03
  A 0.99 0.99 0.0 0 0 893.78 50.02
  L 923.02 50.04
  A 0.48 0.48 0.0 0 1 923.50 50.52
  L 923.51 71.72
  Q 923.51 72.94 922.28 72.94
  L 893.48 72.93
  A 0.62 0.62 0.0 0 0 892.86 73.54
  Q 892.65 97.96 892.94 119.19
  Q 893.02 125.10 896.18 131.56
  Q 896.65 132.52 899.37 134.52
  C 904.72 138.46 915.87 136.86 922.23 136.29
  A 0.70 0.70 0.0 0 1 922.99 136.99
  L 922.98 156.48
  A 1.37 1.37 0.0 0 1 921.91 157.82
  Q 915.83 159.22 910.50 160.26
  Q 895.61 163.15 882.14 157.79
  Q 879.55 156.76 875.76 153.74
  Q 872.63 151.25 870.60 148.10
  Q 867.47 143.24 866.19 138.62
  C 864.75 133.41 864.42 126.74 864.45 121.13
  Q 864.57 97.01 864.49 73.92
  Q 864.48 72.94 863.51 72.94
  L 849.74 72.96
  A 0.72 0.72 0.0 0 1 849.02 72.24
  L 849.01 51.03
  A 0.97 0.97 0.0 0 1 849.98 50.06
  L 863.61 50.04
  Z"
/>
<path fill="#333333" d="
  M 10.50 41.41
  L 10.50 17.91
  A 0.86 0.86 0.0 0 1 11.36 17.05
  L 129.64 17.04
  A 0.86 0.86 0.0 0 1 130.50 17.90
  L 130.50 41.41
  A 0.86 0.86 0.0 0 1 129.64 42.27
  L 86.11 42.25
  A 0.86 0.86 0.0 0 0 85.25 43.11
  L 85.24 158.59
  A 0.86 0.86 0.0 0 1 84.38 159.45
  L 56.69 159.48
  A 0.86 0.86 0.0 0 1 55.83 158.62
  L 55.79 43.11
  A 0.86 0.86 0.0 0 0 54.93 42.25
  L 11.36 42.27
  A 0.86 0.86 0.0 0 1 10.50 41.41
  Z"
/>
<path fill="#333333" d="
  M 154.79 113.61
  Q 155.05 117.22 156.42 119.99
  Q 162.35 132.00 175.68 135.79
  Q 182.51 137.73 193.11 136.26
  C 196.40 135.80 199.11 134.29 202.10 132.94
  Q 203.90 132.13 205.40 131.04
  Q 209.68 127.94 212.78 124.49
  Q 213.54 123.63 214.43 124.36
  L 231.11 138.15
  A 0.65 0.64 -44.7 0 1 231.10 139.15
  Q 229.73 140.25 228.82 141.79
  C 227.89 143.36 226.33 144.23 225.11 145.62
  Q 223.82 147.09 222.27 148.05
  C 220.86 148.92 219.89 150.15 218.41 151.03
  Q 210.81 155.51 204.54 157.61
  Q 200.56 158.95 195.33 159.90
  Q 190.28 160.82 186.44 160.96
  Q 164.87 161.72 148.91 150.77
  Q 144.69 147.87 140.58 143.28
  Q 136.74 138.98 134.39 135.09
  Q 125.10 119.72 125.94 101.16
  Q 126.11 97.34 127.02 93.07
  Q 127.99 88.49 129.17 84.88
  Q 130.20 81.75 132.19 77.88
  Q 133.99 74.37 136.08 71.43
  Q 141.33 64.08 147.78 59.19
  Q 152.02 55.98 157.84 53.22
  Q 163.02 50.76 169.16 49.41
  Q 183.84 46.18 199.86 50.90
  Q 207.12 53.04 214.73 58.40
  Q 215.95 59.26 216.87 60.37
  C 217.83 61.53 219.28 61.91 220.08 63.26
  Q 220.89 64.61 222.07 65.66
  C 223.84 67.23 224.78 69.48 226.19 71.35
  Q 227.38 72.92 228.15 74.68
  C 230.10 79.16 232.05 82.99 233.03 88.01
  C 233.72 91.55 234.68 95.01 234.99 98.58
  Q 235.53 104.85 235.29 111.84
  Q 235.26 112.87 234.24 112.87
  L 155.43 112.93
  Q 154.74 112.93 154.79 113.61
  Z
  M 164.82 75.97
  C 158.95 80.64 154.99 87.03 155.35 94.83
  Q 155.37 95.21 155.75 95.21
  L 208.44 94.70
  A 0.58 0.57 87.3 0 0 209.01 94.07
  Q 207.94 83.16 199.99 76.62
  Q 195.18 72.65 188.65 71.13
  C 180.63 69.26 171.19 70.91 164.82 75.97
  Z"
/>
<path fill="#333333" d="
  M 529.58 56.45
  Q 535.09 53.10 539.39 51.40
  C 544.52 49.37 551.35 48.10 557.07 48.02
  Q 569.08 47.85 579.59 51.19
  Q 585.12 52.95 591.05 57.58
  Q 592.23 58.51 593.11 59.72
  C 593.99 60.94 595.27 61.61 596.04 62.95
  C 597.69 65.78 599.30 68.13 600.62 71.27
  Q 604.98 81.66 604.99 96.45
  Q 604.99 127.53 604.97 158.46
  A 0.96 0.95 -90.0 0 1 604.02 159.42
  L 577.77 159.49
  A 0.71 0.70 89.6 0 1 577.07 158.79
  Q 577.04 129.69 577.04 95.57
  Q 577.03 89.06 573.33 82.67
  C 572.28 80.85 570.77 80.14 569.53 78.59
  Q 568.96 77.87 568.20 77.39
  C 558.79 71.43 549.29 72.08 539.31 75.79
  Q 534.03 77.76 529.52 81.18
  A 1.73 1.72 -18.6 0 0 528.83 82.56
  L 528.74 157.98
  A 1.48 1.47 90.0 0 1 527.27 159.46
  L 501.21 159.48
  A 0.51 0.51 0.0 0 1 500.70 158.97
  L 500.66 50.68
  A 0.66 0.66 0.0 0 1 501.32 50.02
  L 528.00 50.05
  A 0.92 0.92 0.0 0 1 528.92 51.00
  L 528.78 55.98
  Q 528.75 56.96 529.58 56.45
  Z"
/>
<path fill="#333333" d="
  M 653.28 113.25
  A 1.19 1.19 0.0 0 0 652.77 114.62
  Q 657.30 129.17 670.72 134.82
  C 678.26 138.00 690.51 137.90 697.79 134.13
  C 700.03 132.97 702.40 132.19 704.40 130.60
  Q 708.14 127.63 711.61 124.38
  Q 712.01 124.00 712.45 124.32
  Q 715.82 126.69 719.91 130.18
  Q 724.47 134.07 729.17 137.77
  A 0.98 0.98 0.0 0 1 729.24 139.25
  Q 727.81 140.62 726.92 142.37
  Q 726.67 142.87 726.18 143.15
  C 724.21 144.29 723.49 146.24 721.60 147.34
  C 719.63 148.49 718.27 150.15 716.19 151.33
  Q 709.86 154.91 704.05 157.15
  Q 699.39 158.95 690.92 160.35
  C 677.32 162.58 662.45 160.11 650.82 152.99
  Q 630.72 140.70 625.53 116.83
  Q 622.80 104.30 625.49 92.75
  Q 626.32 89.16 627.29 85.67
  C 628.26 82.15 630.04 79.04 631.71 75.69
  Q 632.80 73.52 633.93 71.94
  Q 639.75 63.77 646.71 58.80
  Q 653.95 53.62 662.21 51.03
  Q 666.41 49.71 671.38 48.87
  C 680.69 47.30 690.51 48.30 699.34 51.03
  Q 705.17 52.83 712.36 57.61
  Q 713.95 58.66 715.05 59.87
  C 716.18 61.10 717.48 61.84 718.56 63.11
  Q 724.48 70.01 726.98 75.62
  Q 734.57 92.65 733.94 112.02
  A 0.85 0.85 0.0 0 1 733.09 112.84
  Q 693.89 112.95 654.45 112.91
  Q 653.82 112.91 653.28 113.25
  Z
  M 653.76 95.24
  L 706.96 94.68
  A 0.14 0.14 0.0 0 0 707.10 94.54
  L 707.09 94.33
  A 26.49 24.25 -0.6 0 0 680.35 70.36
  L 679.85 70.36
  A 26.49 24.25 -0.6 0 0 653.62 94.89
  L 653.62 95.10
  A 0.14 0.14 0.0 0 0 653.76 95.24
  Z"
/>
<path fill="#333333" d="
  M 774.25 110.68
  Q 763.35 107.62 755.90 99.21
  C 753.79 96.83 751.45 92.46 750.89 89.28
  Q 749.17 79.57 751.68 71.63
  Q 754.95 61.27 764.02 55.43
  C 767.14 53.42 770.72 51.47 774.38 50.46
  Q 788.50 46.57 803.30 48.72
  Q 808.47 49.47 813.96 50.38
  C 819.22 51.26 823.94 53.23 828.95 54.69
  Q 831.23 55.35 833.42 56.36
  Q 834.96 57.08 834.14 58.58
  Q 831.78 62.86 830.38 66.56
  C 829.18 69.75 827.21 72.40 826.26 75.70
  A 1.96 1.95 16.6 0 1 823.81 77.02
  C 818.49 75.39 813.40 73.37 807.77 72.35
  C 798.34 70.64 787.96 68.48 779.39 72.85
  C 777.34 73.89 776.12 76.29 775.36 78.36
  C 773.87 82.40 777.55 85.99 781.02 87.37
  C 784.76 88.85 788.09 90.19 792.23 90.96
  Q 803.05 92.96 813.70 96.48
  Q 824.54 100.06 831.73 106.81
  Q 834.01 108.94 835.99 112.26
  C 840.29 119.45 840.20 129.81 837.85 137.42
  Q 836.91 140.48 834.16 145.04
  Q 833.22 146.59 831.99 147.65
  C 830.70 148.77 830.19 150.13 828.76 151.12
  Q 820.85 156.59 817.00 157.74
  Q 797.91 163.45 777.21 159.77
  C 772.62 158.96 767.86 158.34 763.49 156.79
  Q 759.56 155.40 755.60 154.11
  C 753.40 153.40 751.49 152.18 749.31 151.39
  A 1.41 1.40 -66.7 0 1 748.54 149.44
  L 758.07 130.39
  Q 758.36 129.82 758.98 130.00
  C 760.50 130.44 761.81 131.38 763.37 131.99
  Q 769.04 134.20 773.53 135.55
  Q 780.68 137.70 791.07 138.60
  Q 801.22 139.49 808.63 136.09
  C 811.79 134.65 815.56 129.53 813.40 125.67
  Q 812.17 123.46 810.66 122.32
  Q 806.22 118.95 800.17 117.75
  Q 793.84 116.50 792.32 116.05
  Q 785.99 114.19 780.00 112.70
  C 778.07 112.22 776.23 111.24 774.25 110.68
  Z"
/>
<path fill="#333333" d="
  M 325.69 77.79
  C 323.73 76.47 321.43 75.71 319.23 74.86
  C 311.77 71.94 304.48 73.07 296.94 76.10
  C 293.05 77.66 288.97 80.81 286.25 83.65
  Q 283.45 86.58 280.96 91.55
  Q 279.27 94.91 278.74 97.78
  C 277.69 103.44 277.78 110.76 280.05 115.54
  C 282.09 119.86 284.56 124.09 288.25 127.20
  Q 292.73 130.98 295.02 132.09
  C 301.52 135.24 308.30 137.09 315.49 135.49
  Q 327.43 132.84 334.25 122.95
  Q 334.62 122.42 335.09 122.86
  L 351.26 137.66
  A 2.00 1.99 41.2 0 1 351.45 140.41
  C 347.52 145.11 343.35 149.36 338.13 152.57
  Q 332.21 156.21 327.45 157.86
  Q 323.97 159.07 319.14 159.99
  C 309.11 161.91 300.08 160.57 290.33 157.78
  Q 287.16 156.87 279.89 153.21
  Q 274.85 150.67 270.41 146.82
  Q 263.32 140.69 259.38 134.69
  Q 256.71 130.64 254.36 125.16
  Q 252.10 119.90 251.31 115.06
  Q 249.10 101.54 252.37 89.90
  Q 253.68 85.26 256.41 79.72
  Q 258.89 74.68 262.39 70.50
  Q 267.13 64.82 271.27 61.65
  C 272.89 60.40 274.70 58.72 276.39 57.81
  Q 287.16 51.99 290.49 51.16
  Q 296.12 49.76 301.57 48.90
  Q 322.62 45.61 340.89 57.96
  C 342.76 59.23 343.96 60.82 345.83 61.94
  C 347.13 62.72 347.49 64.09 348.64 64.97
  Q 351.03 66.79 352.35 69.46
  Q 352.55 69.84 352.31 70.21
  C 350.99 72.23 348.96 73.02 347.49 74.91
  Q 346.40 76.31 344.72 77.21
  Q 344.26 77.46 344.00 77.91
  C 342.96 79.71 341.33 80.29 339.97 81.67
  Q 338.04 83.61 335.37 85.83
  Q 334.62 86.46 334.02 85.68
  Q 330.39 80.96 325.69 77.79
  Z"
/>
<path fill="#333333" d="
  M 358.95 241.13
  L 354.50 254.36
  Q 353.93 256.08 352.12 255.99
  L 349.98 255.89
  Q 347.96 255.80 348.68 253.91
  Q 349.79 250.98 350.75 247.90
  Q 353.82 238.16 356.57 230.09
  C 358.19 225.35 359.56 220.54 361.43 215.94
  C 363.18 211.63 363.11 203.87 370.37 205.63
  C 371.90 206.00 372.84 207.21 373.25 208.64
  C 374.69 213.63 376.38 218.43 377.91 223.34
  C 379.04 226.99 380.77 230.61 381.61 234.41
  C 382.35 237.78 384.10 240.91 385.01 244.23
  C 386.03 247.97 387.39 251.38 388.69 255.02
  A 0.69 0.69 0.0 0 1 388.02 255.94
  L 382.97 255.83
  Q 382.27 255.82 382.05 255.15
  L 377.40 241.01
  Q 377.24 240.53 376.74 240.53
  L 359.78 240.53
  Q 359.15 240.53 358.95 241.13
  Z
  M 360.86 234.88
  A 0.63 0.63 0.0 0 0 361.47 235.70
  L 375.26 235.58
  A 0.63 0.63 0.0 0 0 375.85 234.75
  L 368.76 212.92
  A 0.63 0.63 0.0 0 0 367.56 212.93
  L 360.86 234.88
  Z"
/>
<path fill="#333333" d="
  M 425.70 247.24
  Q 426.38 249.92 426.82 247.19
  Q 427.90 240.36 429.57 234.36
  C 431.28 228.21 432.27 221.97 434.28 215.75
  C 435.06 213.31 435.48 210.80 435.99 208.30
  C 436.53 205.65 439.91 204.65 441.86 206.11
  Q 442.99 206.94 443.45 209.02
  C 444.36 213.11 445.61 217.07 446.52 221.23
  C 447.79 227.02 449.63 232.50 450.75 238.45
  Q 451.55 242.68 452.92 247.20
  Q 453.71 249.84 454.05 247.10
  Q 454.99 239.55 456.72 231.83
  C 458.50 223.87 459.23 215.77 461.35 207.72
  Q 461.92 205.59 464.12 205.54
  L 465.28 205.51
  Q 467.50 205.47 467.19 207.67
  Q 465.96 216.29 463.73 225.07
  C 462.66 229.28 462.41 233.56 461.33 237.75
  Q 459.29 245.61 457.97 254.26
  A 1.74 1.74 0.0 0 1 456.39 255.73
  C 454.74 255.86 453.07 255.73 451.45 255.90
  Q 450.15 256.03 449.72 254.83
  Q 447.78 249.42 446.68 244.31
  Q 445.86 240.44 444.79 236.75
  C 443.78 233.25 443.37 229.61 442.48 226.06
  Q 441.11 220.61 439.88 215.25
  A 0.27 0.27 0.0 0 0 439.36 215.25
  L 429.73 254.92
  A 1.20 1.20 0.0 0 1 428.55 255.84
  L 422.53 255.74
  A 1.04 1.03 84.4 0 1 421.53 254.91
  C 420.68 250.83 420.23 246.63 419.16 242.70
  Q 417.80 237.69 416.97 233.01
  Q 415.81 226.42 414.30 220.31
  Q 412.80 214.20 411.82 207.69
  Q 411.53 205.77 413.47 205.67
  L 415.83 205.54
  Q 417.43 205.46 417.83 207.01
  Q 419.61 213.75 420.42 219.75
  C 421.07 224.55 422.45 229.28 423.12 234.01
  Q 424.16 241.20 425.70 247.24
  Z"
/>
<path fill="#333333" d="
  M 481.09 241.25
  Q 478.81 247.21 477.31 253.21
  Q 476.65 255.81 473.97 255.93
  L 472.77 255.98
  Q 469.72 256.11 470.83 253.27
  Q 472.49 249.05 473.54 245.28
  C 474.59 241.52 476.31 237.97 477.31 234.28
  Q 478.36 230.42 479.78 226.94
  C 481.12 223.66 481.71 220.32 483.02 217.08
  Q 484.77 212.76 485.66 208.92
  Q 486.03 207.30 487.07 206.53
  C 489.02 205.06 493.36 204.82 494.63 207.31
  Q 495.58 209.18 496.16 211.54
  C 497.29 216.16 499.33 220.39 500.59 224.95
  Q 501.43 227.98 502.63 230.95
  C 504.16 234.73 504.96 238.65 506.52 242.48
  C 508.14 246.46 509.00 250.65 510.64 254.63
  Q 511.22 256.02 509.71 255.97
  L 505.77 255.83
  Q 504.63 255.80 504.20 254.74
  Q 501.54 248.22 500.01 241.63
  A 1.42 1.42 0.0 0 0 498.62 240.54
  L 482.02 240.60
  Q 481.34 240.60 481.09 241.25
  Z
  M 483.03 234.83
  A 0.62 0.62 0.0 0 0 483.62 235.63
  L 497.35 235.66
  A 0.62 0.62 0.0 0 0 497.94 234.86
  L 491.12 212.02
  A 0.62 0.62 0.0 0 0 489.93 212.02
  L 483.03 234.83
  Z"
/>
<path fill="#333333" d="
  M 531.22 246.82
  C 532.41 241.32 534.53 236.35 535.85 230.77
  C 536.74 226.98 538.27 223.38 539.25 219.62
  Q 540.95 213.10 543.06 206.18
  Q 543.27 205.50 543.98 205.51
  L 549.08 205.56
  A 0.65 0.65 0.0 0 1 549.68 206.44
  Q 548.38 209.86 547.26 213.55
  C 545.61 218.97 543.63 224.39 542.04 229.90
  Q 539.58 238.48 536.67 246.91
  C 535.72 249.67 535.13 252.44 534.26 255.17
  Q 534.08 255.74 533.49 255.76
  L 527.08 255.99
  Q 526.52 256.00 526.30 255.50
  C 524.30 250.83 523.43 245.88 521.62 241.22
  C 520.20 237.58 519.36 233.90 518.17 230.18
  Q 514.17 217.61 510.80 206.78
  A 0.73 0.73 0.0 0 1 511.53 205.84
  L 516.09 206.00
  Q 517.02 206.04 517.36 206.91
  C 519.03 211.19 519.75 215.66 521.26 220.04
  Q 522.91 224.85 524.05 229.47
  C 525.03 233.44 526.70 237.10 527.61 241.25
  Q 528.25 244.12 529.28 246.95
  Q 530.48 250.23 531.22 246.82
  Z"
/>
<rect fill="#333333" x="-3.12" y="-25.08" transform="translate(399.38,230.81) rotate(0.1)" width="6.24" height="50.16" rx="1.40"/>
<path fill="#333333" d="
  M 564.09 250.43
  L 585.15 250.43
  A 1.12 1.12 0.0 0 1 586.27 251.51
  L 586.37 254.57
  A 1.12 1.12 0.0 0 1 585.25 255.73
  L 557.85 255.80
  A 1.12 1.12 0.0 0 1 556.73 254.68
  L 556.80 206.90
  A 1.12 1.12 0.0 0 1 557.93 205.78
  L 584.57 206.04
  A 1.12 1.12 0.0 0 1 585.68 207.15
  L 585.70 209.58
  A 1.12 1.12 0.0 0 1 584.59 210.71
  L 564.07 210.96
  A 1.12 1.12 0.0 0 0 562.96 212.08
  L 562.96 225.39
  A 1.12 1.12 0.0 0 0 564.08 226.51
  L 580.90 226.57
  A 1.12 1.12 0.0 0 1 582.02 227.69
  L 582.02 231.04
  A 1.12 1.12 0.0 0 1 580.92 232.16
  L 564.06 232.48
  A 1.12 1.12 0.0 0 0 562.96 233.60
  L 562.97 249.31
  A 1.12 1.12 0.0 0 0 564.09 250.43
  Z"
/>
<rect fill="#333333" x="42.55" y="227.72" width="286.10" height="6.04" rx="0.53"/>
<rect fill="#333333" x="605.21" y="227.82" width="286.74" height="5.92" rx="1.39"/>
</svg>
