<?xml version="1.0" encoding="UTF-8" standalone="no"?>
<!DOCTYPE svg PUBLIC "-//W3C//DTD SVG 1.1//EN" "http://www.w3.org/Graphics/SVG/1.1/DTD/svg11.dtd">
<svg xmlns="http://www.w3.org/2000/svg" version="1.1" viewBox="0.00 0.00 517.00 482.00">
<path fill="#000000" d="
  M 485.89 240.95
  A 229.33 229.33 0.0 0 1 256.56 470.28
  A 229.33 229.33 0.0 0 1 27.23 240.95
  A 229.33 229.33 0.0 0 1 256.56 11.62
  A 229.33 229.33 0.0 0 1 485.89 240.95
  Z
  M 476.91 240.99
  A 220.31 220.31 0.0 0 0 256.60 20.68
  A 220.31 220.31 0.0 0 0 36.29 240.99
  A 220.31 220.31 0.0 0 0 256.60 461.30
  A 220.31 220.31 0.0 0 0 476.91 240.99
  Z"
/>
<path fill="#000000" d="
  M 466.54 240.94
  A 210.00 210.00 0.0 0 1 256.54 450.94
  A 210.00 210.00 0.0 0 1 46.54 240.94
  A 210.00 210.00 0.0 0 1 256.54 30.94
  A 210.00 210.00 0.0 0 1 466.54 240.94
  Z
  M 275.23 129.11
  A 0.82 0.82 0.0 0 0 274.41 128.29
  L 251.55 128.29
  A 0.82 0.82 0.0 0 0 250.73 129.11
  L 250.73 353.05
  A 0.82 0.82 0.0 0 0 251.55 353.87
  L 274.41 353.87
  A 0.82 0.82 0.0 0 0 275.23 353.05
  L 275.23 129.11
  Z
  M 220.00 167.17
  A 0.86 0.86 0.0 0 0 219.14 166.31
  L 196.12 166.31
  A 0.86 0.86 0.0 0 0 195.26 167.17
  L 195.26 315.51
  A 0.86 0.86 0.0 0 0 196.12 316.37
  L 219.14 316.37
  A 0.86 0.86 0.0 0 0 220.00 315.51
  L 220.00 167.17
  Z
  M 330.88 167.18
  A 0.86 0.86 0.0 0 0 330.02 166.32
  L 307.36 166.32
  A 0.86 0.86 0.0 0 0 306.50 167.18
  L 306.50 315.52
  A 0.86 0.86 0.0 0 0 307.36 316.38
  L 330.02 316.38
  A 0.86 0.86 0.0 0 0 330.88 315.52
  L 330.88 167.18
  Z
  M 164.8045 209.5018
  A 1.05 1.05 0.0 0 0 163.7563 208.4499
  L 140.9564 208.4102
  A 1.05 1.05 0.0 0 0 139.9045 209.4583
  L 139.7955 271.9182
  A 1.05 1.05 0.0 0 0 140.8437 272.9701
  L 163.6436 273.0098
  A 1.05 1.05 0.0 0 0 164.6955 271.9617
  L 164.8045 209.5018
  Z
  M 386.49 209.57
  A 1.10 1.10 0.0 0 0 385.39 208.47
  L 363.09 208.47
  A 1.10 1.10 0.0 0 0 361.99 209.57
  L 361.99 271.93
  A 1.10 1.10 0.0 0 0 363.09 273.03
  L 385.39 273.03
  A 1.10 1.10 0.0 0 0 386.49 271.93
  L 386.49 209.57
  Z"
/>
</svg>
