<svg width="265" height="301" viewBox="0 0 265 301" fill="none" xmlns="http://www.w3.org/2000/svg">
<g opacity="0.1">
<path d="M28.5879 283.985C15.4643 283.595 6.90815 280.375 2.99793 274.327C-2.01983 266.569 0.655757 254.255 10.9502 237.726C22.1081 219.811 42.5556 196.32 71.7295 167.915C110.351 130.299 148.109 98.4174 183.939 73.148C215.067 51.1988 245.73 33.5557 275.085 20.7166C326.478 -1.77641 366.923 -6.92143 402.983 -9.13778C441.63 -11.5137 474.921 -5.96068 501.918 7.36431C525.392 18.9512 543.716 36.109 556.382 58.3713C582.768 104.761 577.951 162.896 558.05 192.307C548.716 206.1 536.564 212.723 523.846 210.941C469.999 203.402 422.118 200.367 377.462 201.661C315.93 203.443 261.283 213.696 215.03 232.122C181.969 245.296 133.568 263.321 90.7453 274.377C64.2357 281.226 43.4689 284.427 28.5808 283.985L28.5879 283.985ZM403.044 -8.06853L403.113 -6.99908C367.253 -4.79826 327.023 0.3245 275.941 22.6763C246.724 35.4622 216.185 53.0302 185.175 74.8968C149.432 100.097 111.769 131.91 73.2215 169.442C44.1726 197.729 23.8291 221.088 12.7614 238.855C2.94762 254.61 0.266435 266.15 4.79196 273.148C12.4757 285.032 42.0154 284.735 90.2139 272.291C132.922 261.26 181.235 243.268 214.239 230.122C260.723 211.602 315.622 201.299 377.397 199.51C422.168 198.212 470.17 201.258 524.138 208.815C536.008 210.479 547.414 204.184 556.269 191.108C575.804 162.245 580.484 105.101 554.513 59.4404C542.064 37.5571 524.046 20.6878 500.967 9.29179C474.308 -3.86554 441.387 -9.35022 403.113 -6.99192L403.044 -8.06138L403.044 -8.06853Z" fill="white"/>
<path d="M47.8378 267.829C35.7573 267.47 27.8942 264.507 24.3345 258.935C14.741 243.943 35.5781 211.916 88.0371 161.021C156.826 95.9686 222.373 50.5205 282.859 25.9338C331.953 5.98012 369.469 2.43872 402.7 1.59254C437.04 -0.209315 466.584 4.85978 490.501 16.6676C511.403 26.9817 527.669 42.1727 538.854 61.8334C546.56 75.3802 555.581 97.8421 554.781 127.885C554.21 149.231 548.463 169.642 539.001 183.882C529.458 198.249 516.978 205.285 503.855 203.684C405.755 193.003 302.771 187.871 214.348 222.359C184.304 234.075 140.584 250.04 102.876 259.565C79.5053 265.468 61.1185 268.224 47.8378 267.829ZM422.797 3.35764C416.325 3.16525 409.651 3.24627 402.776 3.60786C369.709 4.45176 332.401 7.9707 283.612 27.8044C223.357 52.2978 158.022 97.6089 89.4235 162.488C62.5868 188.519 43.7718 210.01 33.5115 226.354C24.4294 240.828 21.9049 251.427 26.0186 257.846C32.9813 268.727 58.6749 268.646 102.37 257.608C139.977 248.109 183.617 232.17 213.603 220.482C302.432 185.834 405.702 190.967 504.072 201.678C516.419 203.184 528.209 196.464 537.311 182.765C546.563 168.834 552.192 148.806 552.751 127.832C553.187 111.504 550.827 86.9764 537.094 62.8342C526.112 43.5306 510.139 28.6061 489.604 18.4749C470.767 9.18217 448.359 4.11744 422.79 3.35743L422.797 3.35764Z" fill="white"/>
<path d="M67.0725 251.702C56.0207 251.373 48.8578 248.668 45.6415 243.572C36.9889 229.882 56.1919 200.629 104.344 154.141C169.923 94.1371 232.596 52.7586 290.634 31.1509C337.855 13.5701 373.646 11.7684 402.424 12.323C432.485 11.0817 458.347 15.6831 479.234 26.0039C497.584 35.0744 511.804 48.3492 521.513 65.4658C531.257 82.6336 535.974 102.904 535.158 124.093C534.419 143.427 529.117 161.595 520.231 175.243C510.424 190.304 497.508 197.822 483.857 196.42L476.288 195.823C435.627 192.616 389.536 188.982 344.456 190.113C292.863 191.417 250.078 198.77 213.651 212.596C174.346 227.51 141.147 238.337 114.986 244.759C94.7528 249.731 78.746 252.042 67.0798 251.695L67.0725 251.702ZM418.116 14.1076C413.029 13.9564 407.809 13.9946 402.446 14.2149C373.783 13.6638 338.214 15.4577 291.289 32.9255C233.482 54.4541 171.013 95.7025 105.633 155.526C58.9016 200.638 39.2471 229.928 47.2373 242.566C53.3697 252.276 76.0112 252.398 114.532 242.933C140.629 236.523 173.748 225.723 212.981 210.835C249.604 196.929 292.597 189.539 344.404 188.228C389.585 187.092 435.726 190.727 476.437 193.943L484.027 194.541C496.973 195.865 509.25 188.65 518.653 174.215C527.231 161.045 532.559 142.749 533.28 124.03C534.078 103.192 529.443 83.2603 519.877 66.4058C510.358 49.6243 496.401 36.6081 478.397 27.7055C461.506 19.3518 441.284 14.7962 418.116 14.1076Z" fill="white"/>
<path d="M86.2467 235.688C76.245 235.39 69.8337 232.9 66.9334 228.236C59.2291 215.843 76.7982 189.357 120.658 147.269C183.071 92.2641 242.87 54.9625 298.415 36.3826C344.254 21.0461 377.906 21.201 402.112 23.0596C464.134 21.3714 491.98 47.2728 504.41 69.3059C512.806 84.1842 516.735 101.845 515.777 120.372C514.902 137.317 509.947 153.654 501.833 166.365C491.843 182.015 477.982 190.336 463.866 189.171C453.498 188.669 442.826 188.073 432.511 187.494C356.715 183.264 278.341 178.892 212.968 202.854C151.175 225.489 109.243 236.378 86.2607 235.695L86.2467 235.688ZM388.304 24.0605C365.714 23.389 336.442 25.5062 298.959 38.0465C243.638 56.5542 184.042 93.7401 121.835 148.565C79.2999 189.388 61.3156 215.89 68.4126 227.306C73.7219 235.838 93.3183 236.17 126.666 228.278C148.975 222.995 177.003 214.143 212.346 201.195C278.058 177.114 356.624 181.499 432.592 185.734C442.907 186.313 453.572 186.902 463.961 187.411C477.663 188.528 490.566 180.723 500.338 165.411C508.288 152.952 513.147 136.921 514.007 120.276C514.948 102.079 511.094 84.7494 502.862 70.1626C490.662 48.5446 463.281 23.137 402.096 24.8143L402.003 24.8115C397.737 24.4841 393.169 24.2122 388.289 24.0672L388.304 24.0605Z" fill="white"/>
<path d="M105.528 219.662C97.0127 219.409 90.8808 217.378 88.1673 212.928C81.4114 201.823 97.3683 178.098 136.958 140.389C196.249 90.3348 253.174 57.1099 306.175 41.6066C340.077 31.6893 371.364 29.1305 401.815 33.7895C454.155 33.3108 477.348 55.0406 487.572 73.3617C494.599 85.9427 497.742 100.944 496.679 116.738C495.705 131.223 491.167 145.588 483.9 157.192C473.744 173.417 459.569 182.395 444.874 181.958C444.531 181.948 444.188 181.938 443.846 181.913C426.059 181.564 408.376 180.866 391.278 180.2C325.571 177.624 263.514 175.192 212.243 193.097C173.523 206.61 129.818 220.391 105.514 219.669L105.528 219.662ZM377.977 33.2529C355.152 32.5744 331.615 35.8579 306.637 43.1677C253.851 58.613 197.13 91.7293 138.044 141.603C99.6762 178.152 83.3476 201.874 89.5582 212.081C100.65 230.306 181.349 202.15 211.724 191.555C263.277 173.544 325.491 175.988 391.355 178.569C408.445 179.242 426.115 179.932 443.923 180.282C458.405 181.15 472.465 172.412 482.532 156.32C489.656 144.941 494.108 130.846 495.067 116.625C496.113 101.147 493.032 86.462 486.161 74.158C476.148 56.2156 453.378 34.9282 401.766 35.4214L401.637 35.4176C393.815 34.2108 385.935 33.4894 377.977 33.2529Z" fill="white"/>
<path d="M124.588 203.658C117.029 203.434 111.692 201.613 109.357 197.661C103.55 187.838 117.917 166.852 153.272 133.502C209.5 88.3573 263.551 59.2021 313.957 46.8239C354.913 36.7653 384.183 40.0066 401.546 44.513C444.378 45.1844 463.036 62.9037 471.12 77.6653C482.162 97.8232 480.408 125.309 466.643 147.688C455.966 165.059 440.058 175.117 424.063 174.641C423.991 174.639 423.927 174.637 423.855 174.635C398.48 174.855 374.882 174.182 352.063 173.54C297.502 171.997 250.385 170.668 211.561 183.319C177.006 194.564 143.705 204.219 124.581 203.651L124.588 203.658ZM370.393 41.8318C327.329 40.5518 253.576 54.8867 154.247 134.634C120.009 166.936 105.321 187.898 110.638 196.904C119.407 211.743 181.341 191.59 211.103 181.901C250.179 169.165 297.41 170.504 352.107 172.051C374.912 172.693 398.495 173.366 423.878 173.146C423.943 173.148 424.007 173.15 424.071 173.152C439.559 173.612 454.973 163.819 465.372 146.906C478.852 124.976 480.595 98.0847 469.804 78.3856C461.903 63.9661 443.627 46.6307 401.43 46.014L401.337 46.0112L401.252 45.9872C393.965 44.0871 383.624 42.2251 370.393 41.8318Z" fill="white"/>
<path d="M143.838 187.725C137.266 187.53 132.42 186.003 130.429 182.491C125.586 173.929 138.392 155.655 169.579 126.622C222.81 86.3245 273.98 61.253 321.731 52.0555C339.393 48.6547 356.122 47.5544 371.444 48.7907C386.859 50.0298 396.714 53.353 401.276 55.2581C421.61 56.2852 437.11 61.8753 447.345 71.8867C456.183 80.5312 460.649 92.1906 460.25 105.597C459.812 120.356 453.563 135.73 443.087 147.791C431.996 160.55 418.068 167.507 403.857 167.378C370.171 168.598 340.64 167.892 314.588 167.268C272.153 166.25 238.634 165.447 210.864 173.57L209.155 174.071C188.656 180.052 160.619 188.224 143.845 187.725L143.838 187.725ZM363.687 49.735C352.264 49.3955 338.359 50.2502 321.984 53.4027C274.441 62.5634 223.46 87.5545 170.456 127.673C140.283 155.768 127.2 173.999 131.622 181.817C138.151 193.351 182.358 180.459 208.772 172.755L210.481 172.255C238.453 164.081 272.065 164.879 314.622 165.901C340.659 166.524 370.169 167.23 403.84 166.01C417.673 166.134 431.231 159.345 442.055 146.886C452.332 135.063 458.464 120 458.886 105.556C459.273 92.5366 454.947 81.2323 446.387 72.8611C436.381 63.0715 421.135 57.6036 401.086 56.6136L400.964 56.61L400.851 56.5637C396.36 54.675 383.926 50.3366 363.68 49.7348L363.687 49.735Z" fill="white"/>
<path d="M163.006 172.147C157.256 171.976 152.998 170.646 151.326 167.48C147.446 160.151 158.751 144.533 185.893 119.75L185.952 119.702C220.49 95.3393 273.433 64.7327 329.505 57.2941C345.995 55.1049 361.889 55.1189 375.459 57.3348C386.133 59.0776 395.442 62.2342 401.021 66.0107C440.198 70.0909 443.482 93.593 443.073 103.517C442.552 116.225 435.704 130.371 424.751 141.364C412.988 153.179 398.468 159.839 383.859 160.129C340.367 162.876 306.333 161.858 278.993 161.038C249.46 160.153 228.15 159.512 210.16 163.82C208.727 164.164 207.236 164.521 205.709 164.891C191.147 168.406 174.23 172.481 163.006 172.147ZM186.695 120.691C160.419 144.69 148.888 160.237 152.415 166.904C156.904 175.383 186.101 168.342 205.416 163.686C206.943 163.316 208.434 162.959 209.867 162.615C228.015 158.269 249.404 158.905 279.023 159.792C306.349 160.619 340.34 161.629 383.803 158.88C397.911 158.605 412.504 151.896 423.87 140.478C434.601 129.7 441.319 115.859 441.831 103.452C442.669 83.1884 427.688 69.977 400.735 67.2129L400.578 67.1939L400.452 67.1042C389.507 59.6006 363.366 54.0309 329.662 58.5023C298.859 62.5871 249.045 76.6951 186.695 120.676L186.695 120.691Z" fill="white"/>
<path d="M182.34 157.011C177.132 156.857 173.176 155.736 171.811 152.808C170.406 149.801 171.918 145.354 176.434 139.213C181.345 132.531 190.01 123.669 202.201 112.863L202.266 112.815C261.291 74.609 308.266 64.3783 337.272 62.5254C370.828 60.3779 393.65 68.3778 400.78 76.7709C424.978 81.5449 427.682 95.2009 427.138 102.929C425.642 124.161 397.081 151.166 363.853 152.864C307.76 157.895 272.185 155.799 246.203 154.275C230.414 153.347 219 152.671 209.435 154.07C207.869 154.296 206.224 154.548 204.544 154.799C196.901 155.961 188.691 157.207 182.34 157.019L182.34 157.011ZM202.904 113.722C180.329 133.748 170.204 146.736 172.812 152.337C175.494 158.083 191.505 155.65 204.376 153.698C206.057 153.439 207.702 153.195 209.274 152.969C218.948 151.559 230.404 152.236 246.264 153.166C272.21 154.689 307.743 156.784 363.772 151.759C378.538 151.008 394.055 144.743 406.37 134.571C417.959 125 425.304 113.14 426.032 102.853C426.933 90.0994 417.816 81.2103 400.377 77.8192L400.185 77.7848L400.061 77.6307C394.38 70.7564 372.987 61.3519 337.347 63.6308C308.476 65.4806 261.717 75.6676 202.904 113.722Z" fill="white"/>
<path d="M261.681 150.035C241.241 149.428 228.256 147.272 219.241 145.772C214.958 145.064 211.578 144.498 208.653 144.297C207.889 144.238 207.119 144.187 206.348 144.135C199.547 143.682 192.518 143.215 191.161 139.056C190.054 135.663 191.681 128.54 218.515 105.976L218.581 105.928C252.247 86.3684 285.38 74.1574 317.062 69.6259C350.324 64.8691 371.733 70.1262 381.53 73.677C391.611 77.3365 398.511 82.3844 400.531 87.5595C412.311 92.2438 413.926 99.2552 413.189 104.327C411.993 112.58 403.474 122.292 390.394 130.299C376.739 138.662 359.77 144.232 343.834 145.593C307.6 149.781 281.227 150.616 261.681 150.035ZM208.717 143.324C211.686 143.534 215.094 144.094 219.399 144.81C236.995 147.732 269.739 153.169 343.734 144.623C378.874 141.619 409.933 120.048 412.228 104.184C413.21 97.3784 408.975 91.9154 399.977 88.3884L399.772 88.3107L399.7 88.1007C397.888 83.1253 391.142 78.2037 381.203 74.5986C370.231 70.6188 310.864 53.4589 219.107 106.753C199.328 123.387 190.486 133.856 192.086 138.754C193.239 142.291 199.933 142.734 206.413 143.163C207.19 143.214 207.961 143.266 208.724 143.325L208.717 143.324Z" fill="white"/>
<path d="M245.711 144.345C241.125 144.209 236.915 143.926 233.095 143.504C214.251 141.404 209.339 136.129 207.724 134.397C206.124 132.645 205.435 130.812 205.624 128.79C206.197 122.732 214.662 114.122 234.844 99.0828L234.91 99.0418C267.083 82.7976 299.927 73.551 329.896 72.3069C363.759 70.8921 382.264 79.7738 388.648 83.6601C395.995 88.1267 400.115 93.3714 400.258 98.4333C403.058 101.633 403.824 104.973 402.551 108.366C399.538 116.401 385.855 122.8 374.919 126.744C360.593 131.913 342.445 136.03 323.829 138.328C291.309 142.907 265.114 144.922 245.711 144.345ZM208.335 133.821C219.228 145.499 258.046 146.739 323.711 137.494C357.771 133.291 396.696 121.553 401.759 108.078C402.931 104.96 402.172 101.864 399.522 98.8914L399.418 98.7737L399.423 98.6163C399.351 93.8 395.376 88.753 388.205 84.392C361.474 68.1377 302.225 66.0255 235.309 99.7987C215.631 114.466 207 123.164 206.458 128.879C206.29 130.672 206.887 132.245 208.335 133.828L208.335 133.821Z" fill="white"/>
<path d="M229.456 138.661C217.533 138.307 210.227 136.32 207.389 132.697C205.666 130.503 205.548 127.742 207.032 124.261C209.561 118.311 218.725 111.191 225.971 106.27C234.247 100.641 244.158 95.1043 251.209 92.169C289.205 76.3414 320.232 74.3408 339.563 75.4455C362.034 76.7295 381.83 83.0849 392.528 92.4366C398.709 97.8429 401.305 103.852 399.854 109.361C396.196 123.207 371.984 124.938 343.952 126.941C330.789 127.882 317.182 128.853 303.802 131.071C270.302 136.615 245.63 139.142 229.456 138.661ZM251.342 92.5025L251.483 92.8362C238.501 98.2459 212.008 114.394 207.695 124.553C206.327 127.772 206.416 130.289 207.959 132.262C214.38 140.455 246.597 139.815 303.694 130.365C317.11 128.142 330.732 127.172 343.909 126.231C371.668 124.248 395.637 122.532 399.166 109.183C400.551 103.951 398.027 98.2022 392.061 92.9815C381.482 83.7265 361.841 77.4402 339.527 76.1608C320.247 75.0576 289.355 77.0622 251.49 92.8292L251.35 92.4955L251.342 92.5025Z" fill="white"/>
</g>
</svg>
