<svg width="390" height="495" viewBox="0 0 390 495" fill="none" xmlns="http://www.w3.org/2000/svg">
<g opacity="0.3">
<path d="M220.906 453.02C211.481 455.545 202.327 457.766 193.492 459.665C144.986 470.1 107.637 470.748 82.4835 461.592C56.7492 452.227 44.5136 432.69 46.1123 403.518C50.9703 314.96 63.6218 257.489 71.9933 219.463C75.7612 202.347 78.7377 188.826 79.5858 178.6C80.9948 161.58 99.4182 134.55 127.663 108.055C158.059 79.5441 192.976 57.8547 223.464 48.5502C265.512 35.7174 308.35 11.1525 336.88 -7.19586C370.115 -28.5696 403.606 -54.2641 426.466 -75.9301C441.223 -89.9172 458.818 -94.9729 477.345 -90.5521C509.423 -82.8951 540.145 -47.8773 557.52 0.832438C565.754 23.919 574.27 47.7953 581.024 71.2258C588.494 97.1319 592.935 119.695 594.605 140.202C596.596 164.688 594.796 186.967 589.104 208.307C582.747 232.134 571.714 254.28 555.374 276.012C527.467 313.128 437.904 368.991 337.577 411.86C296.534 429.395 256.753 443.411 220.905 453.017L220.906 453.02ZM451.657 -89.3302C442.943 -86.9951 434.708 -82.2409 427.215 -75.1378C404.307 -53.4254 370.757 -27.6851 337.47 -6.27887C308.882 12.1039 265.95 36.7239 223.781 49.593C193.449 58.8518 158.684 80.4482 128.405 108.853C100.349 135.17 82.0566 161.932 80.6688 178.695C79.8149 188.998 76.8311 202.547 73.055 219.703C64.69 257.697 52.0534 315.112 47.1984 403.583C45.6285 432.218 57.6244 451.393 82.8567 460.578C107.814 469.659 144.96 468.997 193.265 458.609C235.628 449.499 285.382 432.99 337.15 410.869C437.323 368.068 526.703 312.348 554.507 275.368C570.762 253.748 581.735 231.727 588.056 208.034C593.717 186.814 595.508 164.657 593.525 140.296C589.809 94.5918 572.873 47.1168 556.499 1.20358C539.249 -47.165 508.823 -81.9175 477.094 -89.4882C468.333 -91.5804 459.785 -91.5043 451.658 -89.3267L451.657 -89.3302Z" fill="white"/>
<path d="M222.011 433.803C214.556 435.801 207.295 437.586 200.251 439.147C155.832 448.992 121.639 449.833 98.6165 441.645C75.3443 433.367 64.1725 415.938 65.4103 389.842C68.5691 310.993 79.291 256.355 86.3838 220.203C89.714 203.231 92.3428 189.826 93.1451 179.484C94.4475 162.767 111.329 136.967 137.203 112.148C164.909 85.5722 197.316 65.0983 226.117 55.9726C264.852 43.945 304.374 21.5724 330.705 4.92589C361.64 -14.6328 391.795 -37.2041 413.437 -57.0076C427.097 -69.5021 443.316 -73.8743 460.346 -69.6518C489.907 -62.3242 518.158 -30.1025 534.074 14.4464C549.13 56.4605 564.7 99.9065 568.127 142.725C569.933 165.279 568.267 185.817 563.035 205.514C557.2 227.484 547.091 247.914 532.142 267.97C506.587 302.485 424.402 354.509 332.287 394.484C293.42 411.35 255.758 424.765 222.008 433.808L222.011 433.803ZM435.964 -68.6259C428.201 -66.5458 420.851 -62.4036 414.129 -56.2565C392.445 -36.4155 362.238 -13.8002 331.254 5.78652C304.868 22.4665 265.265 44.8835 226.426 56.9462C197.771 66.0255 165.509 86.4117 137.914 112.883C112.213 137.535 95.4517 163.086 94.1672 179.562C93.3624 189.965 90.7253 203.395 87.3921 220.398C80.3032 256.522 69.5935 311.108 66.438 389.885C65.2244 415.484 76.1666 432.574 98.9659 440.683C121.802 448.804 155.807 447.95 200.036 438.148C238.903 429.536 284.496 414.108 331.889 393.542C423.856 353.632 505.867 301.745 531.329 267.356C546.205 247.406 556.255 227.09 562.056 205.248C567.259 185.664 568.914 165.241 567.116 142.801C563.699 100.115 548.153 56.7335 533.117 14.7813C517.314 -29.4491 489.338 -61.4226 460.103 -68.6689C451.794 -70.7283 443.673 -70.6954 435.963 -68.6294L435.964 -68.6259Z" fill="white"/>
<path d="M223.189 414.606C217.668 416.085 212.273 417.429 207.006 418.638C166.674 427.898 135.634 428.928 114.748 421.707C93.9382 414.515 83.8328 399.191 84.7149 376.161C86.1993 306.513 94.7104 256.651 100.926 220.248C103.747 203.727 105.972 190.677 106.713 180.359C107.928 163.692 122.896 139.72 146.753 116.232C171.779 91.5916 201.677 72.3333 228.779 63.3892C292.981 43.0468 366.595 -8.44463 400.414 -38.0899C412.978 -49.0919 427.828 -52.7823 443.364 -48.7592C470.403 -41.76 496.179 -12.329 510.635 28.0476C523.713 64.3313 538.531 105.458 541.658 145.24C543.276 165.861 541.747 184.659 536.978 202.71C531.662 222.826 522.484 241.537 508.92 259.918C497.274 275.93 473.243 295.831 439.428 317.461C406.949 338.239 367.018 359.421 327.002 377.108C290.335 393.313 254.804 406.134 223.192 414.605L223.189 414.606ZM420.244 -47.933C413.44 -46.1097 406.981 -42.577 401.041 -37.3737C367.164 -7.67565 293.407 43.9104 229.071 64.2964C202.107 73.1959 172.344 92.373 147.419 116.911C123.725 140.239 108.861 163.985 107.662 180.428C106.918 190.791 104.687 203.861 101.861 220.41C95.6535 256.785 87.1505 306.606 85.6641 376.191C84.8007 398.759 94.6901 413.767 115.058 420.808C135.774 427.969 166.635 426.927 206.79 417.707C242.159 409.586 283.597 395.246 326.61 376.235C366.586 358.566 406.467 337.409 438.909 316.656C472.621 295.091 496.563 275.278 508.143 259.355C521.639 241.071 530.766 222.462 536.047 202.469C540.788 184.522 542.311 165.828 540.699 145.316C537.585 105.662 522.787 64.5981 509.728 28.3729C495.377 -11.7097 469.854 -40.9123 443.117 -47.8349C435.24 -49.8754 427.542 -49.8884 420.241 -47.932L420.244 -47.933Z" fill="white"/>
<path d="M224.456 395.432C220.821 396.406 217.254 397.313 213.744 398.153C177.499 406.823 149.616 408.049 130.865 401.796C112.521 395.678 103.488 382.453 104.014 362.489C103.817 301.399 110.633 253.861 115.612 219.153C117.757 204.195 119.61 191.279 120.275 181.24C121.385 164.866 134.852 142.091 156.293 120.322C178.655 97.6206 206.043 79.5708 231.434 70.8077C256.831 62.5678 286.887 48.1675 318.364 29.1606C343.629 13.9052 368.785 -3.71155 387.388 -19.1714C398.854 -28.6877 412.342 -31.6948 426.391 -27.8614C450.901 -21.1774 474.196 5.46024 487.187 41.6585C500.961 79.6142 512.573 113.799 515.179 147.764C516.614 166.453 515.216 183.514 510.909 199.92C506.115 218.177 497.865 235.175 485.686 251.881C475.148 266.682 453.456 285.026 422.954 304.929C393.774 323.969 357.813 343.443 321.694 359.764C287.254 375.324 253.887 387.557 224.451 395.445L224.456 395.432ZM404.494 -27.258C398.655 -25.6934 393.1 -22.7625 387.953 -18.491C369.32 -3.00431 344.122 14.6422 318.822 29.9183C287.287 48.9596 257.168 63.3916 231.715 71.6466C206.458 80.3661 179.195 98.3339 156.928 120.942C135.631 142.564 122.258 165.131 121.165 181.298C120.497 191.371 118.641 204.303 116.493 219.277C111.518 253.957 104.706 301.456 104.905 362.498C104.389 382.039 113.217 394.974 131.148 400.952C149.743 407.153 177.463 405.918 213.543 397.289C245.421 389.657 282.695 376.403 321.336 358.942C357.414 342.64 393.333 323.192 422.475 304.174C452.884 284.333 474.492 266.067 484.97 251.349C497.086 234.731 505.288 217.832 510.055 199.685C514.335 183.376 515.725 166.41 514.299 147.823C511.701 113.973 500.109 79.8499 486.358 41.9518C473.461 6.02054 450.396 -20.4051 426.161 -27.013C418.706 -29.0466 411.406 -29.1137 404.5 -27.2633L404.494 -27.258Z" fill="white"/>
<path d="M225.839 376.303C224.03 376.787 222.243 377.252 220.468 377.697C188.311 385.782 163.58 387.201 146.962 381.912C131.086 376.86 123.127 365.726 123.312 348.814C121.347 295.48 126.598 249.632 130.433 216.156C131.954 202.883 133.269 191.418 133.834 182.122C134.856 165.786 146.521 144.752 165.833 124.412C185.552 103.644 210.427 86.8106 234.087 78.2306C281.312 62.4707 339.901 26.4994 374.358 -0.251885C384.738 -8.29336 396.869 -10.6146 409.437 -6.96492C431.405 -0.585283 452.214 23.2565 463.741 55.2615C475.575 87.6002 486.386 119.201 488.702 150.276C489.951 167.029 488.688 182.354 484.844 197.115C480.573 213.515 473.249 228.793 462.459 243.826C453.029 257.416 433.671 274.214 406.483 292.394C380.602 309.699 348.605 327.466 316.388 342.423C284.21 357.358 253.043 369.014 225.84 376.306L225.839 376.303ZM388.7 -6.60504C383.844 -5.30393 379.199 -2.96524 374.864 0.391765C340.355 27.1834 281.665 63.2153 234.36 79.0003C210.828 87.5351 186.067 104.293 166.434 124.974C147.25 145.179 135.67 166.025 134.661 182.17C134.093 191.486 132.777 202.962 131.256 216.246C127.422 249.696 122.175 295.509 124.138 348.802C123.958 365.331 131.722 376.199 147.217 381.129C163.687 386.37 188.267 384.947 220.273 376.899C248.656 369.755 281.777 357.583 316.044 341.672C348.222 326.734 380.18 308.991 406.029 291.706C433.134 273.582 452.415 256.862 461.791 243.35C472.528 228.398 479.808 213.207 484.053 196.907C487.876 182.234 489.129 166.999 487.889 150.337C485.582 119.364 474.787 87.8226 462.976 55.5414C451.537 23.7789 430.941 0.131064 409.217 -6.17548C402.158 -8.22547 395.241 -8.35005 388.706 -6.59899L388.7 -6.60504Z" fill="white"/>
<path d="M227.383 357.224L227.183 357.278C199.114 364.78 177.536 366.392 163.052 362.072C149.641 358.075 142.765 349.011 142.617 335.136C138.639 288.648 142.505 243.227 145.329 210.063C146.213 199.676 146.978 190.708 147.405 182.996C148.324 166.932 158.525 147.066 175.383 128.496C192.484 109.658 214.853 94.0356 236.751 85.6428C257.1 78.6168 280.402 67.7648 306.026 53.3908C325.3 42.5767 345.459 29.918 361.34 18.6568C370.64 12.0849 381.421 10.4512 392.527 13.9343C411.947 20.0229 430.253 41.07 440.302 68.8627C450.292 95.8733 460.21 124.604 462.232 152.791C463.293 167.612 462.166 181.192 458.784 194.315C455.034 208.856 448.639 222.42 439.232 235.776C422.735 260.322 371.226 296.229 311.068 325.116C281.209 339.456 252.277 350.554 227.383 357.224ZM372.834 14.0148C368.975 15.0488 365.265 16.8071 361.772 19.2754C345.872 30.5492 325.684 43.2268 306.39 54.0501C280.731 68.4449 257.384 79.3125 237.005 86.3504C215.226 94.7 192.964 110.245 175.938 129.002C159.193 147.449 149.068 167.145 148.156 183.038C147.727 190.759 146.963 199.734 146.077 210.125C143.253 243.262 139.391 288.644 143.368 335.096C143.515 348.63 150.209 357.451 163.266 361.344C177.614 365.622 199.054 364.009 226.986 356.543L227.186 356.49C252.035 349.832 280.919 338.75 310.738 324.429C370.786 295.593 422.169 259.792 438.606 235.34C447.963 222.054 454.321 208.572 458.049 194.119C461.409 181.08 462.53 167.577 461.476 152.839C459.462 124.752 449.56 96.0807 439.59 69.1171C429.618 41.5399 411.497 20.6678 392.3 14.651C385.606 12.5518 379.028 12.3512 372.84 14.0095L372.834 14.0148Z" fill="white"/>
<path d="M229.038 338.269C207.404 344.066 190.625 345.426 179.118 342.309C168.177 339.343 162.39 332.341 161.915 321.487C155.329 280.968 158.096 233.613 160.116 199.031C160.432 193.604 160.731 188.481 160.964 183.877C161.797 167.829 170.306 149.615 184.923 132.586C199.663 115.418 219.011 101.381 239.403 93.0622C253.665 87.9219 292.801 72.2391 348.314 37.5754C356.546 32.4622 366.001 31.5174 375.658 34.8531C392.499 40.6695 408.285 58.9152 416.853 82.4667C425.095 104.453 434.032 130.026 435.752 155.308C437.572 182.027 431.11 205.713 415.999 227.727C408.776 238.916 394.082 252.632 373.517 267.388C353.93 281.441 330.491 295.436 305.735 307.857C280.169 320.684 255.321 330.736 233.878 336.923C232.239 337.396 230.623 337.844 229.034 338.27L229.038 338.269ZM356.871 34.582C354.037 35.3413 351.294 36.5371 348.68 38.1591C339.798 43.7048 321.687 54.7133 300.174 66.116C277.59 78.0908 257.23 87.3714 239.654 93.7032C219.373 101.977 200.119 115.944 185.451 133.032C170.935 149.945 162.484 168.012 161.659 183.909C161.426 188.512 161.127 193.638 160.813 199.069C158.793 233.625 156.028 280.946 162.607 321.395L162.61 321.436C163.062 331.966 168.678 338.763 179.303 341.641C191.359 344.907 210.168 343.048 233.692 336.258C255.097 330.08 279.901 320.047 305.43 307.238C330.154 294.833 353.563 280.857 373.123 266.827C393.619 252.123 408.247 238.469 415.432 227.347C430.457 205.461 436.877 181.914 435.072 155.359C433.358 130.169 424.439 104.651 416.214 82.7128C407.714 59.3454 392.092 41.262 375.44 35.5109C369.06 33.3054 362.767 33.0095 356.879 34.5871L356.871 34.582Z" fill="white"/>
<path d="M231.405 319.355C216.044 323.472 203.633 324.62 195.172 322.669C186.675 320.708 181.982 315.717 181.218 307.829C170.596 272.708 173.352 211.077 174.525 184.755C176.051 151.867 203.822 117.211 242.058 100.481C272.878 88.7608 308.034 70.5814 329.04 59.7229C331.269 58.5709 333.364 57.4888 335.298 56.4912C342.484 52.8161 350.644 52.5816 358.883 55.8063C373.113 61.3748 386.339 76.803 393.408 96.0732C400.857 115.578 407.934 136.558 409.276 157.827C410.707 180.522 405.311 200.753 392.77 219.68C380.729 239.335 344.474 267.198 300.407 290.657C279.217 301.936 258.529 310.926 240.578 316.658C237.417 317.666 234.356 318.569 231.403 319.36L231.405 319.355ZM340.737 55.0599C338.971 55.5332 337.251 56.1963 335.582 57.0482C333.647 58.0424 331.556 59.1235 329.327 60.2789C308.312 71.1438 273.137 89.3357 242.296 101.061C204.282 117.695 176.667 152.125 175.152 184.785C173.976 211.082 171.223 272.667 181.827 307.681L181.843 307.74C182.566 315.35 187.097 320.168 195.313 322.062C205.293 324.363 220.882 322.287 240.392 316.063C258.309 310.345 278.965 301.371 300.117 290.109C344.089 266.698 380.251 238.924 392.247 219.349C420.094 177.322 407.802 135.519 392.827 96.2999C385.816 77.1868 372.724 61.8984 358.658 56.3948C352.505 53.9861 346.407 53.5483 340.743 55.0659L340.737 55.0599Z" fill="white"/>
<path d="M234.157 300.77C224.767 303.286 216.939 304.184 211.263 303.263C205.15 302.267 201.539 299.214 200.53 294.191C194.924 285.36 191.083 268.769 189.106 244.879C187.666 227.473 187.295 205.88 188.091 185.634C189.416 153.145 210.584 124.088 244.718 107.902C256.872 102.94 269.454 97.5196 281.623 92.277C297.362 85.4972 312.228 79.0974 322.285 75.406C330.761 72.3332 340.456 74.4112 349.582 81.2534C358.234 87.7393 365.659 98.0983 369.965 109.675C380.303 136.042 382.255 150.602 382.803 160.343C383.851 179.004 379.513 195.782 369.544 211.63C359.674 228.934 331.167 252.66 295.148 273.536C272.14 286.872 250.72 296.336 234.158 300.773L234.157 300.77ZM324.318 75.3521C323.699 75.518 323.087 75.7119 322.479 75.9311C312.435 79.6153 297.579 86.0123 281.847 92.7903C269.675 98.0338 257.088 103.452 244.944 108.411C211.017 124.5 189.965 153.377 188.651 185.653C187.857 205.879 188.226 227.447 189.663 244.831C191.634 268.671 195.461 285.194 201.031 293.933L201.058 293.978L201.071 294.027C202.013 298.829 205.469 301.75 211.351 302.711C226.917 305.25 258.919 293.884 294.864 273.05C330.802 252.222 359.233 228.577 369.062 211.343C378.973 195.589 383.281 178.921 382.242 160.377C381.206 141.914 374.857 123.691 369.439 109.88C365.172 98.3936 357.813 88.1257 349.245 81.7033C340.931 75.4714 332.156 73.2558 324.319 75.3555L324.318 75.3521Z" fill="white"/>
<path d="M237.703 282.81C233.82 283.851 230.447 284.376 227.71 284.334C223.706 284.268 221.071 283.011 219.879 280.592C211.396 277.061 206.933 258.558 204.681 243.632C202.143 226.797 201.011 205.446 201.651 186.508C202.222 170.211 206.113 156.588 213.546 144.855C221.139 132.874 232.203 123.214 247.372 115.317C270.729 104.795 295.028 96.5568 309.285 94.325C316.235 93.2683 323.976 95.8772 331.08 101.665C337.725 107.082 343.353 114.959 346.516 123.279C355.426 145.102 363.455 173.945 346.313 203.576C338.682 218.419 317.739 238.159 290.298 256.362C270.245 269.666 250.993 279.249 237.699 282.811L237.703 282.81ZM297.202 97.4916C283.264 101.226 265.161 107.845 247.592 115.76C232.514 123.606 221.514 133.211 213.969 145.116C206.582 156.773 202.715 170.315 202.149 186.52C200.947 221.914 205.739 274.366 220.155 280.166L220.243 280.202L220.285 280.288C221.368 282.579 223.869 283.771 227.718 283.834C239.739 284.029 264.197 273.081 290.029 255.943C317.402 237.785 338.286 218.117 345.884 203.332C362.923 173.878 354.928 145.172 346.06 123.454L346.058 123.447C342.924 115.205 337.349 107.4 330.767 102.038C323.773 96.3363 316.171 93.7689 309.361 94.803C305.86 95.3516 301.751 96.2651 297.2 97.4847L297.202 97.4916Z" fill="white"/>
<path d="M243.379 266.562C241.704 267.011 240.341 267.147 239.351 266.937C236.665 268.091 234.093 267.855 231.708 266.246C224.729 261.537 220.722 246.209 218.589 234.173C216.05 219.856 214.794 202.363 215.222 187.379C215.716 170.428 218.145 158.575 223.101 148.941C228.383 138.669 236.947 130.339 250.041 122.728C265.206 114.828 283.366 111.108 296.309 113.249C307.925 115.22 319.043 126.808 323.078 136.872C332.115 157.485 332.119 177.217 323.095 195.512C319.891 202.867 314.063 211.202 305.783 220.281C298.612 228.14 289.784 236.321 280.242 243.935C265.307 255.857 251.067 264.494 243.381 266.554L243.379 266.562ZM239.307 266.492L239.375 266.507C240.327 266.728 241.649 266.598 243.283 266.161C260.201 261.627 310.292 223.816 322.7 195.341C331.67 177.153 331.662 157.546 322.676 137.051L322.674 137.044C318.683 127.088 307.7 115.625 296.229 113.679C283.372 111.553 265.316 115.255 250.237 123.11C237.224 130.673 228.716 138.943 223.469 149.142C218.546 158.715 216.132 170.512 215.638 187.394C215.211 202.353 216.469 219.811 219.001 234.104C221.121 246.057 225.085 261.273 231.937 265.896C234.212 267.43 236.668 267.641 239.236 266.518L239.299 266.49L239.307 266.492Z" fill="white"/>
<path d="M251.821 257.848C250.145 258.298 248.511 258.203 246.928 257.556C242.959 255.941 237.314 249.972 232.945 230.727C230.017 217.826 228.46 201.953 228.778 188.265C229.153 172.088 229.601 161.642 232.638 153.051C235.78 144.162 241.588 137.529 252.693 130.162C258.811 126.102 265.334 124.935 272.074 126.692C286.649 130.497 297.674 146.68 299.623 150.482C303.262 157.584 304.262 166.297 302.591 176.38C301.153 185.061 297.745 194.774 292.459 205.261C282.906 224.212 268.77 242.431 258.728 253.162C256.364 255.687 254.054 257.254 251.822 257.852L251.821 257.848ZM260.381 127.008C257.828 127.692 255.331 128.841 252.892 130.461C241.862 137.781 236.091 144.359 232.978 153.17C229.961 161.714 229.513 172.13 229.14 188.273C228.56 213.23 234.608 252.146 247.064 257.224C250.6 258.666 254.434 257.216 258.459 252.915C268.484 242.204 282.595 224.018 292.131 205.098C297.399 194.646 300.797 184.965 302.227 176.321C303.884 166.315 302.897 157.678 299.296 150.648C297.363 146.876 286.422 130.813 271.977 127.044C268.023 126.013 264.143 126.004 260.375 127.013L260.381 127.008Z" fill="white"/>
</g>
</svg>
